#!OML:ASF E:/inclinewalkrobotboard/Project1/Captureday1/Session1/subject1.ASF
:FULLY-SPECIFIED
:DEGREES
176
root 0 0 0 -0.5095513689779575 -3.016800042808006 -0.19540432865271007
lowerback 11.216115843253567 0.6352664171189291 0.3997351774999126
upperback -1.9400346361423209 0.9283318986434757 0.4976387618235718
thorax -8.372831362139932 0.4321655239652779 0.10988444071299203
lowerneck -11.417780239681061 -0.6324895726149978 1.3466328691728315
upperneck 18.860003278762623 -0.25444167873984824 -3.8973952593961525
head 7.8242673638479925 -0.316233459144051 -1.5691814899224816
rclavicle -5.483592155234055E-16 -6.198473617224188E-16
rhumerus -0.5199667549883049 0.9127619402470692 -60.209410039833536
rradius 53.343858431652635
rwrist 17.455169226566916
rhand -27.243486669616328 -23.441317536285823
rfingers 7.125019999999925
rthumb -0.8367371411338764 -53.577989896065084
lclavicle -4.900372064469532E-16 -6.929295438707401E-16
lhumerus -1.293978608904629 -6.925196305869774 60.487093049756524
lradius 52.63837564346163
lwrist -11.132917431441522
lhand -37.27026779330955 -31.221406401014008
lfingers 7.12501999999992
lthumb -10.372843774878449 -1.6678929436860983
rfemur -21.381557392812077 -0.34037543604698284 19.545978388937733
rtibia 50.612144752157825
rfoot -22.7663098793609 -13.851933026726766
rtoes -12.223830363413665
lfemur -23.133288591672763 1.5486028642973184 -18.14150296120089
ltibia 50.13085591510509
lfoot -25.96369140634284 -3.65346372949271
ltoes -16.724375368838054
177
root 0 0 0 -0.5092736858270442 -3.016882859051578 -0.19510090033726868
lowerback 11.216222784246224 0.6353102130392636 0.3996613937684816
upperback -1.9403982601552556 0.9283595186519542 0.4974689263605401
thorax -8.37327460389527 0.4321779549776006 0.10973857683643945
lowerneck -11.417002694683374 -0.6321701673203567 1.3470981098006896
upperneck 18.85994069714422 -0.2539512082696036 -3.898020610171831
head 7.8241179212427285 -0.316016265648267 -1.5694157196543874
rclavicle -5.48325784299112E-16 -6.197613707395661E-16
rhumerus -0.5270888252006554 0.908079211290568 -60.213689104112674
rradius 53.33735269899881
rwrist 17.451875545501323
rhand -27.241100619385772 -23.42992285393396
rfingers 7.125019999999925
rthumb -0.8345055103422947 -53.56666484921442
lclavicle -4.901706806778628E-16 -6.928847031689145E-16
lhumerus -1.3020949201346124 -6.923257284176925 60.492810392614054
lradius 52.63213352952925
lwrist -11.12868139846588
lhand -37.26755950264835 -31.207255485820184
lfingers 7.12501999999992
lthumb -10.370256085356196 -1.6536113844164397
rfemur -21.383468141286706 -0.34153805697222506 19.544422473023523
rtibia 50.61467571557169
rfoot -22.76973915084841 -13.853605986545663
rtoes -12.227469183460972
lfemur -23.13024463357638 1.5478579707531674 -18.14181965141611
ltibia 50.12708847494229
lfoot -25.959419329250977 -3.6532639760031307
ltoes -16.721555997711786
178
root 0 0 0 -0.5090911203970474 -3.0169242267479404 -0.19488189510142495
lowerback 11.21629237339355 0.6353312779190186 0.3995946107869326
upperback -1.9406390172045969 0.9283659690914017 0.497357111686021
thorax -8.373571164745623 0.4321843964032535 0.1096537991073917
lowerneck -11.416489421041529 -0.631947489129921 1.3474155502041765
upperneck 18.859894480233187 -0.2536201066036865 -3.898433097377401
head 7.824015720163749 -0.31587423871908615 -1.5695739631066155
rclavicle -5.483614315278614E-16 -6.197021507279333E-16
rhumerus -0.5316592161921818 0.9050713670559158 -60.216427505543166
rradius 53.33315980371059
rwrist 17.44976210193014
rhand -27.239571683559635 -23.422625364835234
rfingers 7.125019999999924
rthumb -0.8330720148029167 -53.559426571516994
lclavicle -4.902163150967965E-16 -6.928549295771269E-16
lhumerus -1.306313327039165 -6.922244938308216 60.49578708145782
lradius 52.62886347425723
lwrist -11.12647789712442
lhand -37.266146421353085 -31.19984561819213
lfingers 7.12501999999992
lthumb -10.368903501776611 -1.6461538468629584
rfemur -21.38596055817234 -0.3430664529178453 19.542379624552353
rtibia 50.618013352727004
rfoot -22.774245655846173 -13.855795957407746
rtoes -12.23222808364364
lfemur -23.126705289382393 1.546990773760299 -18.142185530660658
ltibia 50.12273250319208
lfoot -25.95442650310169 -3.6530658358714185
ltoes -16.7182892659091
179
root 0 0 0 -0.5121077959524811 -3.015954872426062 -0.19784609506050166
lowerback 11.215168067813027 0.6348352791680093 0.40020602943844086
upperback -1.9368136563039382 0.9279337400762218 0.499088344920161
thorax -8.368710006012465 0.432040906615815 0.11119947044798839
lowerneck -11.42463030298564 -0.6353657074326469 1.3423888513341902
upperneck 18.860447071219536 -0.25873083302486455 -3.8918009026930296
head 7.825521524609446 -0.3181101212902484 -1.5670642611975871
rclavicle -5.486356753238597E-16 -6.203537702507925E-16
rhumerus -0.5224547665554251 0.9114149013149806 -60.20996823726772
rradius 53.34219135029541
rwrist 17.454657518892112
rhand -27.24308428532663 -23.43918661008984
rfingers 7.125019999999925
rthumb -0.8366434941238774 -53.57674226987862
lclavicle -4.900670867054479E-16 -6.937011628635067E-16
lhumerus -1.285031320942359 -6.9275007503943495 60.48080140189215
lradius 52.64757298894386
lwrist -11.137921143167162
lhand -37.27395740009304 -31.236958716353
lfingers 7.12501999999992
lthumb -10.376008163024622 -1.6855827297653327
rfemur -21.380845941969245 -0.33978616930250904 19.546652626702283
rtibia 50.610680088635846
rfoot -22.764612537357134 -13.850771803207776
rtoes -12.22164249416791
lfemur -23.118640899152723 1.5450800954381452 -18.143242108808835
ltibia 50.11336088909788
lfoot -25.942911713998583 -3.6528410725515794
ltoes -16.7114992279136
180
root 0 0 0 -0.510180612073918 -3.0165485650398227 -0.19597604734085028
lowerback 11.215869023350455 0.6351334290184378 0.39981086784324904
upperback -1.9392213676987824 0.928214129333347 0.49801475351580654
thorax -8.371799081640066 0.432130469609534 0.11025601491367926
lowerneck -11.419518532926638 -0.6331826362860952 1.3455787583744934
upperneck 18.860126418156206 -0.25552514720242425 -3.895983925384842
head 7.824593642766578 -0.3167158247585258 -1.568660566594054
rclavicle -5.48326721273472E-16 -6.199211010587578E-16
rhumerus -0.5203329433762907 0.9125353837346424 -60.20957278372944
rradius 53.34357909352864
rwrist 17.45507749719475
rhand -27.243406632593672 -23.44079687610884
rfingers 7.125019999999925
rthumb -0.8366799213660583 -53.57743182016992
lclavicle -4.899218464730764E-16 -6.930106840469118E-16
lhumerus -1.2865235636248578 -6.927023969477437 60.481869697235204
lradius 52.64420772241155
lwrist -11.13679082514639
lhand -37.27277954655556 -31.234512988910957
lfingers 7.12501999999992
lthumb -10.37522305693382 -1.6809410003651095
rfemur -21.381888294777056 -0.3404633391542329 19.545761151276146
rtibia 50.612186716518686
rfoot -22.766615940026107 -13.852117528026007
rtoes -12.224253733765014
lfemur -23.12890133001194 1.5475577415735715 -18.141944028419104
ltibia 50.125899102365764
lfoot -25.95765965082586 -3.6533282195678773
ltoes -16.720489546830333
